<svg width="180" height="180" viewBox="0 0 180 180" fill="none" xmlns="http://www.w3.org/2000/svg">
  <rect width="180" height="180" rx="24" fill="url(#paint0_linear_1_20)" />
  <g filter="url(#filter0_d_1_20)">
    <path d="M90 54V30H66" stroke="#C8C8C8" stroke-width="12" stroke-linecap="round" stroke-linejoin="round" />
    <path
      d="M66 126L42 150V66C42 62.8174 43.2643 59.7652 45.5147 57.5147C47.7652 55.2643 50.8174 54 54 54H126C129.183 54 132.235 55.2643 134.485 57.5147C136.736 59.7652 138 62.8174 138 66V114C138 117.183 136.736 120.235 134.485 122.485C132.235 124.736 129.183 126 126 126H66Z"
      stroke="#C8C8C8"
      stroke-width="12"
      stroke-linecap="round"
      stroke-linejoin="round"
    />
    <path d="M30 90H42" stroke="#C8C8C8" stroke-width="12" stroke-linecap="round" stroke-linejoin="round" />
    <path d="M72 84V96" stroke="#C8C8C8" stroke-width="12" stroke-linecap="round" stroke-linejoin="round" />
    <path d="M108 84V96" stroke="#C8C8C8" stroke-width="12" stroke-linecap="round" stroke-linejoin="round" />
    <path d="M138 90H150" stroke="#C8C8C8" stroke-width="12" stroke-linecap="round" stroke-linejoin="round" />
  </g>
  <defs>
    <filter
      id="filter0_d_1_20"
      x="20"
      y="24"
      width="140"
      height="140"
      filterUnits="userSpaceOnUse"
      color-interpolation-filters="sRGB"
    >
      <feFlood flood-opacity="0" result="BackgroundImageFix" />
      <feColorMatrix
        in="SourceAlpha"
        type="matrix"
        values="0 0 0 0 0 0 0 0 0 0 0 0 0 0 0 0 0 0 127 0"
        result="hardAlpha"
      />
      <feOffset dy="4" />
      <feGaussianBlur stdDeviation="2" />
      <feComposite in2="hardAlpha" operator="out" />
      <feColorMatrix type="matrix" values="0 0 0 0 0 0 0 0 0 0 0 0 0 0 0 0 0 0 0.25 0" />
      <feBlend mode="normal" in2="BackgroundImageFix" result="effect1_dropShadow_1_20" />
      <feBlend mode="normal" in="SourceGraphic" in2="effect1_dropShadow_1_20" result="shape" />
    </filter>
    <linearGradient
      id="paint0_linear_1_20"
      x1="7.81874e-07"
      y1="180"
      x2="182.5"
      y2="-7.72923e-07"
      gradientUnits="userSpaceOnUse"
    >
      <stop stop-color="#272340" />
      <stop offset="1" stop-color="#AD00FF" />
    </linearGradient>
  </defs>
</svg>
